<?xml version="1.0" encoding="utf-8"?>
<!-- Generator: Adobe Illustrator 19.2.0, SVG Export Plug-In . SVG Version: 6.00 Build 0)  -->
<svg version="1.1" id="Layer_1" xmlns="http://www.w3.org/2000/svg" xmlns:xlink="http://www.w3.org/1999/xlink" x="0px" y="0px"
	 viewBox="0 0 493 161" style="enable-background:new 0 0 493 161;" xml:space="preserve">
<style type="text/css">
	.st0{opacity:0.7;}
	.st1{fill:#090705;}
</style>
<title>Ghost</title>
<g>
	<g>
		<path d="M328.5,37.4c-27,0-41,19.3-41,43.2s13.6,43.2,41,43.2s41-19.3,41-43.2C369.5,56.7,355.5,37.4,328.5,37.4L328.5,37.4z
			 M349,80.6c0,15.3-5.1,27.7-20.4,27.7c-15.3,0-20.4-12.4-20.4-27.7v-0.1c0-15.3,5.1-27.7,20.4-27.7
			C343.8,52.8,348.9,65.2,349,80.6L349,80.6L349,80.6z M207.6,5.2c0-1.1,0.9-2.1,2-2.3c0,0,13.6-2,14.8-2.1c1.4-0.2,3.2,0.8,3.2,2.7
			v44.2c3.2-3.1,6.8-5.6,10.7-7.5c3.9-1.9,8.4-2.9,13.7-2.9c4.5,0,8.5,0.8,12,2.3c3.5,1.5,6.4,3.7,8.8,6.5c2.3,2.8,4.1,6.2,5.3,10
			c1.2,3.9,1.8,8.2,1.8,12.9v51.4c0,1.1-0.9,2-2,2h-15.9c-1.1,0-2-0.9-2-2V69.2c0-5.1-1.2-9.1-3.5-11.9c-2.3-2.8-5.9-4.2-10.5-4.2
			c-3.4,0-6.7,0.8-9.7,2.4c-3,1.6-5.9,3.7-8.6,6.5v58.6c0,1.1-0.9,2-2,2h-15.9c-1.1,0-2-0.9-2-2L207.6,5.2L207.6,5.2z M451.6,100.5
			V56.8h-13.5c-1.1,0-1.7-0.9-1.4-1.9l3-10.5c0.3-0.9,0.9-1.9,2.3-2.1l9.6-1.4l3.5-23.5c0.2-1.1,1.2-2.1,2.3-2.3c0,0,9.2-1.3,11-1.6
			c1.7-0.3,3.2,1,3.2,2.8V41H489c1.1,0,2,0.9,2,2v11.8c0,1.1-0.9,2-2,2h-17.6v43.1c0,6,3.6,8.3,7.1,8.3c2.1,0,5-1.1,7.2-2.2
			c1.3-0.6,3.4-0.2,4,1.7l2.5,8.6c0.3,1.1-0.2,2.4-1.2,2.9c0,0-7.3,4.4-17.1,4.4C460.2,123.7,451.6,115.6,451.6,100.5L451.6,100.5z
			 M407,52.8c-7.1,0-12.7,2.5-12.7,8.4c0,7.4,12,9.6,20.2,12.6c5.5,2,20.2,6,20.2,22c0,19.5-16,27.8-33.1,27.8
			c-17.1,0-25.4-5.5-25.4-5.5c-1-0.5-1.5-1.8-1.2-2.9c0,0,2.1-7.5,2.6-9.4c0.5-1.7,2.4-2.3,3.6-1.8c4.4,1.7,12.3,4.1,21.3,4.1
			c9.1,0,13.5-2.8,13.5-8.8c0-7.9-12.3-10.4-20.4-13c-5.6-1.8-20.4-5.9-20.4-23.6c0-17.4,15.1-25.5,31.2-25.5
			c13.6,0,23.5,4.7,23.5,4.7c1,0.4,1.6,1.6,1.3,2.7c0,0-2.2,7.9-2.7,9.4c-0.5,1.7-1.9,2.5-3.7,2C421.2,54.8,413.9,52.8,407,52.8
			L407,52.8z M196.7,37.5c-6.7,0.8-11.5,4-14.6,6.9c-6.1-4.8-14.5-7.1-23.9-7.1c-19,0-33.8,9.3-33.8,29.4c0,11.6,4.9,19.6,12.6,24.3
			c-5.7,2.8-9.6,8.6-9.6,14.3c0,9.6,7.5,12.6,7.5,12.6s-13.1,6.4-13.1,19.3c0,16.5,15,23.2,33.3,23.2c26.4,0,44.6-11,44.6-31.3
			c0-12.5-9.4-19.4-30-20.2c-12.2-0.5-20.1-0.9-22.1-1.6c-2.6-0.9-3.9-3-3.9-5.3c0-2.6,2.1-5,5.3-6.7c2.9,0.5,5.9,0.8,9,0.8
			c19,0,33.8-9.2,33.8-29.4c0-4.9-0.9-9.2-2.5-12.8c2.8-1.5,8.3-2.2,8.3-2.2c1.1-0.2,2-1.2,2-2.3v-9.1
			C199.8,38.4,198.2,37.3,196.7,37.5L196.7,37.5z M147.5,122.6c0,0,10,0.4,19.9,0.8c11.2,0.5,14.7,3,14.7,8.8
			c0,7.1-9.7,14.1-23.3,14.1c-12.9,0-19.3-4.5-19.3-12.1C139.5,130,141.8,125.1,147.5,122.6L147.5,122.6z M158.2,82.1
			c-9,0-16-4.8-16-15.3c0-10.5,7-15.3,16-15.3c9,0,16,4.8,16,15.3S167.2,82.1,158.2,82.1z"/>
	</g>
	<g transform="translate(0 36)" class="st0">
		<path class="st1" d="M4.2,69h25.6c2.2,0,4,1.8,4,4v9c0,2.2-1.8,4-4,4H4.2c-2.2,0-4-1.8-4-4v-9C0.2,70.8,2,69,4.2,69z"/>
		<path class="st1" d="M54.7,69h25.6c2.2,0,4,1.8,4,4v9c0,2.2-1.8,4-4,4H54.7c-2.2,0-4-1.8-4-4v-9C50.7,70.8,52.5,69,54.7,69z"/>
		<path class="st1" d="M4.2,35h76.1c2.2,0,4,1.8,4,4v9c0,2.2-1.8,4-4,4H4.2c-2.2,0-4-1.8-4-4v-9C0.2,36.8,2,35,4.2,35z"/>
		<path class="st1" d="M4.2,1h42.5c2.2,0,4,1.8,4,4v9c0,2.2-1.8,4-4,4H4.2c-2.2,0-4-1.8-4-4V5C0.2,2.8,2,1,4.2,1z"/>
		<path class="st1" d="M71.5,1h8.8c2.2,0,4,1.8,4,4v9c0,2.2-1.8,4-4,4h-8.8c-2.2,0-4-1.8-4-4V5C67.5,2.8,69.3,1,71.5,1z"/>
	</g>
</g>
</svg>
