<svg xmlns="http://www.w3.org/2000/svg" xmlns:xlink="http://www.w3.org/1999/xlink" xmlns:lucid="lucid" width="971" height="1172"><g transform="translate(-49 0)" lucid:page-tab-id="1jiscL2OcYmj"><path d="M0 0h1360v1760H0z" fill="#fff"/><path d="M308 20c17.67 0 32 17.9 32 40s-14.33 40-32 40h-96c-17.67 0-32-17.9-32-40s14.33-40 32-40z" stroke="#000" stroke-width="2" fill="#fff"/><use xlink:href="#a" transform="matrix(1,0,0,1,185,25) translate(26.099999999999994 38.6)"/><use xlink:href="#b" transform="matrix(1,0,0,1,185,25) translate(76.94999999999999 38.6)"/><path d="M180 180h160v120H180z" stroke="#000" stroke-width="2" fill="#ffbbb1"/><use xlink:href="#c" transform="matrix(1,0,0,1,185,185) translate(12.749999999999993 47.8)"/><use xlink:href="#d" transform="matrix(1,0,0,1,185,185) translate(46.74999999999999 47.8)"/><use xlink:href="#e" transform="matrix(1,0,0,1,185,185) translate(103.30000000000001 47.8)"/><use xlink:href="#f" transform="matrix(1,0,0,1,185,185) translate(40.05 69.4)"/><use xlink:href="#g" transform="matrix(1,0,0,1,185,185) translate(80.94999999999999 69.4)"/><path d="M260 102v58.5" stroke="#000" stroke-width="2" fill="none"/><path d="M261 102.03h-2V101h2z"/><path d="M260 175.76l-4.64-14.26h9.28z" stroke="#000" stroke-width="2"/><path d="M180 360h160v120H180z" stroke="#000" stroke-width="2" fill="#c1e4f7"/><use xlink:href="#c" transform="matrix(1,0,0,1,185,365) translate(4.525000000000006 58.6)"/><use xlink:href="#h" transform="matrix(1,0,0,1,185,365) translate(38.525000000000006 58.6)"/><use xlink:href="#i" transform="matrix(1,0,0,1,185,365) translate(63.525000000000006 58.6)"/><use xlink:href="#j" transform="matrix(1,0,0,1,185,365) translate(102.47500000000001 58.6)"/><path d="M540 60h40v40h-40z" stroke="#fff" stroke-width="2" fill="#ffbbb1"/><path d="M580 50h80v60h-80z" stroke="#000" stroke-opacity="0" stroke-width="2" fill="#fff" fill-opacity="0"/><use xlink:href="#k" transform="matrix(1,0,0,1,585,55) translate(3.0249999999999986 28.6)"/><use xlink:href="#g" transform="matrix(1,0,0,1,585,55) translate(37.975 28.6)"/><path d="M540 110h40v40h-40z" stroke="#fff" stroke-width="2" fill="#c1e4f7"/><path d="M580 100h100v60H580z" stroke="#000" stroke-opacity="0" stroke-width="2" fill="#fff" fill-opacity="0"/><use xlink:href="#l" transform="matrix(1,0,0,1,585,105) translate(0.42499999999999716 28.6)"/><use xlink:href="#g" transform="matrix(1,0,0,1,585,105) translate(60.575 28.6)"/><path d="M260 302v38.5" stroke="#000" stroke-width="2" fill="none"/><path d="M261 302.03h-2V301h2z"/><path d="M260 355.76l-4.64-14.26h9.28z" stroke="#000" stroke-width="2"/><path d="M180 560h144v102c-24.05-17.03-39.02-17.03-48.1-17.03-14.4 0-33.55 17.03-47.95 17.03-8.93 0-24.05 0-47.95-17.03z" stroke="#000" stroke-width="2" fill="#fff"/><path d="M188 569h144v102c-24.05-17.03-39.02-17.03-48.1-17.03-14.4 0-33.55 17.03-47.95 17.03-8.93 0-24.05 0-47.95-17.03z" stroke="#000" stroke-width="2" fill="#fff"/><path d="M196 578h144v102c-24.05-17.03-39.02-17.03-48.1-17.03-14.4 0-33.55 17.03-47.95 17.03-8.93 0-24.05 0-47.95-17.03z" stroke="#000" stroke-width="2" fill="#fff"/><use xlink:href="#m" transform="matrix(1,0,0,1,201,583) translate(14.574999999999996 30.299999999999997)"/><use xlink:href="#e" transform="matrix(1,0,0,1,201,583) translate(85.475 30.299999999999997)"/><use xlink:href="#n" transform="matrix(1,0,0,1,201,583) translate(50 51.9)"/><path d="M260 740l80 60-80 60-80-60z" stroke="#000" stroke-width="2" fill="#fff"/><use xlink:href="#o" transform="matrix(1,0,0,1,185,745) translate(19.025 58.6)"/><use xlink:href="#p" transform="matrix(1,0,0,1,185,745) translate(38.025 58.6)"/><use xlink:href="#q" transform="matrix(1,0,0,1,185,745) translate(77.025 58.6)"/><path d="M258 482v58.5" stroke="#000" stroke-width="2" fill="none"/><path d="M259 482.03h-2V481h2z"/><path d="M258 555.76l-4.64-14.26h9.28z" stroke="#000" stroke-width="2"/><path d="M440 740h160v120H440z" stroke="#000" stroke-width="2" fill="#fff"/><use xlink:href="#r" transform="matrix(1,0,0,1,445,745) translate(23.574999999999996 47.8)"/><use xlink:href="#i" transform="matrix(1,0,0,1,445,745) translate(68.475 47.8)"/><use xlink:href="#s" transform="matrix(1,0,0,1,445,745) translate(107.42500000000001 47.8)"/><use xlink:href="#t" transform="matrix(1,0,0,1,445,745) translate(53.025 69.4)"/><path d="M640 740h160v120H640z" stroke="#000" stroke-width="2" fill="#fff"/><use xlink:href="#u" transform="matrix(1,0,0,1,645,745) translate(3.1499999999999915 37)"/><use xlink:href="#v" transform="matrix(1,0,0,1,645,745) translate(62.99999999999999 37)"/><use xlink:href="#w" transform="matrix(1,0,0,1,645,745) translate(110.95 37)"/><use xlink:href="#x" transform="matrix(1,0,0,1,645,745) translate(16.025 58.6)"/><use xlink:href="#y" transform="matrix(1,0,0,1,645,745) translate(65.025 58.6)"/><use xlink:href="#z" transform="matrix(1,0,0,1,645,745) translate(90.025 58.6)"/><use xlink:href="#n" transform="matrix(1,0,0,1,645,745) translate(58 80.20000000000002)"/><path d="M260 677.03v43.22" stroke="#000" stroke-width="2" fill="none"/><path d="M261 677.06h-2v-.57l2-.93z"/><path d="M260 735.5l-4.64-14.25h9.28z" stroke="#000" stroke-width="2"/><path d="M361.8 801h-19.13v-2h19.14zm58.7 0h-29.34v-2h29.34z"/><path d="M342.7 801h-2.37l1.34-1-1.34-1h2.36zM435.76 800l-14.26 4.64v-9.28z"/><path d="M439 800l-18.5 6v-12zm-16.5 3.26l10.03-3.26-10.03-3.26z"/><use xlink:href="#A" transform="matrix(1,0,0,1,361.8135057471264,789.2) translate(0 14.4)"/><path d="M261 980.5h-2v-90.34h2zm0-111.94h-2v-6.3h2z"/><path d="M261 862.28h-2v-1.78l1 .75 1-.75zM260 995.76l-4.64-14.26h9.28z"/><path d="M260 999l-6-18.5h12zm-3.26-16.5l3.26 10.03 3.26-10.03z"/><g><use xlink:href="#B" transform="matrix(1,0,0,1,248.525,868.5576495726496) translate(0 14.4)"/></g><path d="M180 1000h160v120H180z" stroke="#000" stroke-width="2" fill="#ffbbb1"/><g><use xlink:href="#C" transform="matrix(1,0,0,1,185,1005) translate(1.0250000000000057 47.8)"/><use xlink:href="#i" transform="matrix(1,0,0,1,185,1005) translate(48.025000000000006 47.8)"/><use xlink:href="#D" transform="matrix(1,0,0,1,185,1005) translate(86.97500000000001 47.8)"/><use xlink:href="#s" transform="matrix(1,0,0,1,185,1005) translate(129.975 47.8)"/><use xlink:href="#E" transform="matrix(1,0,0,1,185,1005) translate(41.5 69.4)"/></g><path d="M602 800h18.5" stroke="#000" stroke-width="2" fill="none"/><path d="M602.03 801H601v-2h1.03z"/><path d="M635.76 800l-14.26 4.64v-9.28z" stroke="#000" stroke-width="2"/><path d="M840 740h160v120H840z" stroke="#000" stroke-width="2" fill="#ffbbb1"/><g><use xlink:href="#C" transform="matrix(1,0,0,1,845,745) translate(8.525000000000006 47.8)"/><use xlink:href="#v" transform="matrix(1,0,0,1,845,745) translate(55.525000000000006 47.8)"/><use xlink:href="#F" transform="matrix(1,0,0,1,845,745) translate(103.47500000000001 47.8)"/><use xlink:href="#G" transform="matrix(1,0,0,1,845,745) translate(37.224999999999994 69.4)"/><use xlink:href="#H" transform="matrix(1,0,0,1,845,745) translate(61.224999999999994 69.4)"/></g><path d="M802 800h18.5" stroke="#000" stroke-width="2" fill="none"/><path d="M802.03 801H801v-2h1.03z"/><path d="M835.76 800l-14.26 4.64v-9.28z" stroke="#000" stroke-width="2"/><path d="M920 862v198H359.5" stroke="#000" stroke-width="2" fill="none"/><path d="M921 862.03h-2V861h2z"/><path d="M344.24 1060l14.26-4.64v9.28z" stroke="#000" stroke-width="2"/><path d="M160.5 241H61v919h198v-38h2v40H59V239h101.5z"/><path d="M261 1122.03h-2V1121h2zM175.76 240l-14.26 4.64v-9.28z"/><path d="M179 240l-18.5 6v-12zm-16.5 3.26l10.03-3.26-10.03-3.26z"/><defs><path d="M212-179c-10-28-35-45-73-45-59 0-87 40-87 99 0 60 29 101 89 101 43 0 62-24 78-52l27 14C228-24 195 4 139 4 59 4 22-46 18-125c-6-104 99-153 187-111 19 9 31 26 39 46" id="I"/><path d="M24 0v-261h32V0H24" id="J"/><path d="M24-231v-30h32v30H24zM24 0v-190h32V0H24" id="K"/><path d="M100-194c63 0 86 42 84 106H49c0 40 14 67 53 68 26 1 43-12 49-29l28 8c-11 28-37 45-77 45C44 4 14-33 15-96c1-61 26-98 85-98zm52 81c6-60-76-77-97-28-3 7-6 17-6 28h103" id="L"/><path d="M117-194c89-4 53 116 60 194h-32v-121c0-31-8-49-39-48C34-167 62-67 57 0H25l-1-190h30c1 10-1 24 2 32 11-22 29-35 61-36" id="M"/><path d="M59-47c-2 24 18 29 38 22v24C64 9 27 4 27-40v-127H5v-23h24l9-43h21v43h35v23H59v120" id="N"/><g id="a"><use transform="matrix(0.05,0,0,0.05,0,0)" xlink:href="#I"/><use transform="matrix(0.05,0,0,0.05,12.950000000000001,0)" xlink:href="#J"/><use transform="matrix(0.05,0,0,0.05,16.900000000000002,0)" xlink:href="#K"/><use transform="matrix(0.05,0,0,0.05,20.85,0)" xlink:href="#L"/><use transform="matrix(0.05,0,0,0.05,30.85,0)" xlink:href="#M"/><use transform="matrix(0.05,0,0,0.05,40.85,0)" xlink:href="#N"/></g><path d="M185-189c-5-48-123-54-124 2 14 75 158 14 163 119 3 78-121 87-175 55-17-10-28-26-33-46l33-7c5 56 141 63 141-1 0-78-155-14-162-118-5-82 145-84 179-34 5 7 8 16 11 25" id="O"/><path d="M141-36C126-15 110 5 73 4 37 3 15-17 15-53c-1-64 63-63 125-63 3-35-9-54-41-54-24 1-41 7-42 31l-33-3c5-37 33-52 76-52 45 0 72 20 72 64v82c-1 20 7 32 28 27v20c-31 9-61-2-59-35zM48-53c0 20 12 33 32 33 41-3 63-29 60-74-43 2-92-5-92 41" id="P"/><path d="M114-163C36-179 61-72 57 0H25l-1-190h30c1 12-1 29 2 39 6-27 23-49 58-41v29" id="Q"/><path d="M135-143c-3-34-86-38-87 0 15 53 115 12 119 90S17 21 10-45l28-5c4 36 97 45 98 0-10-56-113-15-118-90-4-57 82-63 122-42 12 7 21 19 24 35" id="R"/><g id="b"><use transform="matrix(0.05,0,0,0.05,0,0)" xlink:href="#O"/><use transform="matrix(0.05,0,0,0.05,12,0)" xlink:href="#N"/><use transform="matrix(0.05,0,0,0.05,17,0)" xlink:href="#P"/><use transform="matrix(0.05,0,0,0.05,27,0)" xlink:href="#Q"/><use transform="matrix(0.05,0,0,0.05,32.95,0)" xlink:href="#N"/><use transform="matrix(0.05,0,0,0.05,37.95,0)" xlink:href="#R"/></g><path d="M143 4C61 4 22-44 18-125c-5-107 100-154 193-111 17 8 29 25 37 43l-32 9c-13-25-37-40-76-40-61 0-88 39-88 99 0 61 29 100 91 101 35 0 62-11 79-27v-45h-74v-28h105v86C228-13 192 4 143 4" id="S"/><g id="c"><use transform="matrix(0.05,0,0,0.05,0,0)" xlink:href="#S"/><use transform="matrix(0.05,0,0,0.05,14,0)" xlink:href="#L"/><use transform="matrix(0.05,0,0,0.05,24,0)" xlink:href="#N"/></g><path d="M127-220V0H93v-220H8v-28h204v28h-85" id="T"/><path d="M140-251c81 0 123 46 123 126C263-46 219 4 140 4 59 4 17-45 17-125s42-126 123-126zm0 227c63 0 89-41 89-101s-29-99-89-99c-61 0-89 39-89 99S79-25 140-24" id="U"/><path d="M30-248c118-7 216 8 213 122C240-48 200 0 122 0H30v-248zM63-27c89 8 146-16 146-99s-60-101-146-95v194" id="V"/><g id="d"><use transform="matrix(0.05,0,0,0.05,0,0)" xlink:href="#T"/><use transform="matrix(0.05,0,0,0.05,10.600000000000001,0)" xlink:href="#U"/><use transform="matrix(0.05,0,0,0.05,24.6,0)" xlink:href="#V"/><use transform="matrix(0.05,0,0,0.05,37.550000000000004,0)" xlink:href="#U"/></g><path d="M115-194c53 0 69 39 70 98 0 66-23 100-70 100C84 3 66-7 56-30L54 0H23l1-261h32v101c10-23 28-34 59-34zm-8 174c40 0 45-34 45-75 0-40-5-75-45-74-42 0-51 32-51 76 0 43 10 73 51 73" id="W"/><path d="M100-194c62-1 85 37 85 99 1 63-27 99-86 99S16-35 15-95c0-66 28-99 85-99zM99-20c44 1 53-31 53-75 0-43-8-75-51-75s-53 32-53 75 10 74 51 75" id="X"/><path d="M177-190C167-65 218 103 67 71c-23-6-38-20-44-43l32-5c15 47 100 32 89-28v-30C133-14 115 1 83 1 29 1 15-40 15-95c0-56 16-97 71-98 29-1 48 16 59 35 1-10 0-23 2-32h30zM94-22c36 0 50-32 50-73 0-42-14-75-50-75-39 0-46 34-46 75s6 73 46 73" id="Y"/><g id="e"><use transform="matrix(0.05,0,0,0.05,0,0)" xlink:href="#W"/><use transform="matrix(0.05,0,0,0.05,10,0)" xlink:href="#J"/><use transform="matrix(0.05,0,0,0.05,13.949999999999998,0)" xlink:href="#X"/><use transform="matrix(0.05,0,0,0.05,23.95,0)" xlink:href="#Y"/></g><path d="M101-234c-31-9-42 10-38 44h38v23H63V0H32v-167H5v-23h27c-7-52 17-82 69-68v24" id="Z"/><path d="M210-169c-67 3-38 105-44 169h-31v-121c0-29-5-50-35-48C34-165 62-65 56 0H25l-1-190h30c1 10-1 24 2 32 10-44 99-50 107 0 11-21 27-35 58-36 85-2 47 119 55 194h-31v-121c0-29-5-49-35-48" id="aa"/><g id="f"><use transform="matrix(0.05,0,0,0.05,0,0)" xlink:href="#Z"/><use transform="matrix(0.05,0,0,0.05,5,0)" xlink:href="#Q"/><use transform="matrix(0.05,0,0,0.05,10.95,0)" xlink:href="#X"/><use transform="matrix(0.05,0,0,0.05,20.95,0)" xlink:href="#aa"/></g><path d="M205 0l-28-72H64L36 0H1l101-248h38L239 0h-34zm-38-99l-47-123c-12 45-31 82-46 123h93" id="ab"/><path d="M30-248c87 1 191-15 191 75 0 78-77 80-158 76V0H30v-248zm33 125c57 0 124 11 124-50 0-59-68-47-124-48v98" id="ac"/><path d="M33 0v-248h34V0H33" id="ad"/><g id="g"><use transform="matrix(0.05,0,0,0.05,0,0)" xlink:href="#ab"/><use transform="matrix(0.05,0,0,0.05,12,0)" xlink:href="#ac"/><use transform="matrix(0.05,0,0,0.05,24,0)" xlink:href="#ad"/></g><path d="M101-251c82-7 93 87 43 132L82-64C71-53 59-42 53-27h129V0H18c2-99 128-94 128-182 0-28-16-43-45-43s-46 15-49 41l-32-3c6-41 34-60 81-64" id="ae"/><path d="M101-251c68 0 85 55 85 127S166 4 100 4C33 4 14-52 14-124c0-73 17-127 87-127zm-1 229c47 0 54-49 54-102s-4-102-53-102c-51 0-55 48-55 102 0 53 5 102 54 102" id="af"/><g id="h"><use transform="matrix(0.05,0,0,0.05,0,0)" xlink:href="#ae"/><use transform="matrix(0.05,0,0,0.05,10,0)" xlink:href="#af"/></g><g id="i"><use transform="matrix(0.05,0,0,0.05,0,0)" xlink:href="#W"/><use transform="matrix(0.05,0,0,0.05,10,0)" xlink:href="#J"/><use transform="matrix(0.05,0,0,0.05,13.949999999999998,0)" xlink:href="#X"/><use transform="matrix(0.05,0,0,0.05,23.95,0)" xlink:href="#Y"/></g><path d="M115-194c55 1 70 41 70 98S169 2 115 4C84 4 66-9 55-30l1 105H24l-1-265h31l2 30c10-21 28-34 59-34zm-8 174c40 0 45-34 45-75s-6-73-45-74c-42 0-51 32-51 76 0 43 10 73 51 73" id="ag"/><g id="j"><use transform="matrix(0.05,0,0,0.05,0,0)" xlink:href="#ag"/><use transform="matrix(0.05,0,0,0.05,10,0)" xlink:href="#X"/><use transform="matrix(0.05,0,0,0.05,20,0)" xlink:href="#R"/><use transform="matrix(0.05,0,0,0.05,29,0)" xlink:href="#N"/><use transform="matrix(0.05,0,0,0.05,34,0)" xlink:href="#R"/></g><path d="M84 4C-5 8 30-112 23-190h32v120c0 31 7 50 39 49 72-2 45-101 50-169h31l1 190h-30c-1-10 1-25-2-33-11 22-28 36-60 37" id="ah"/><g id="k"><use transform="matrix(0.05,0,0,0.05,0,0)" xlink:href="#U"/><use transform="matrix(0.05,0,0,0.05,14,0)" xlink:href="#ah"/><use transform="matrix(0.05,0,0,0.05,24,0)" xlink:href="#Q"/></g><g id="l"><use transform="matrix(0.05,0,0,0.05,0,0)" xlink:href="#T"/><use transform="matrix(0.05,0,0,0.05,10.3,0)" xlink:href="#ah"/><use transform="matrix(0.05,0,0,0.05,20.3,0)" xlink:href="#aa"/><use transform="matrix(0.05,0,0,0.05,35.25,0)" xlink:href="#W"/><use transform="matrix(0.05,0,0,0.05,45.25,0)" xlink:href="#J"/><use transform="matrix(0.05,0,0,0.05,49.2,0)" xlink:href="#Q"/></g><path d="M63-220v92h138v28H63V0H30v-248h175v28H63" id="ai"/><path d="M96-169c-40 0-48 33-48 73s9 75 48 75c24 0 41-14 43-38l32 2c-6 37-31 61-74 61-59 0-76-41-82-99-10-93 101-131 147-64 4 7 5 14 7 22l-32 3c-4-21-16-35-41-35" id="aj"/><path d="M106-169C34-169 62-67 57 0H25v-261h32l-1 103c12-21 28-36 61-36 89 0 53 116 60 194h-32v-121c2-32-8-49-39-48" id="ak"/><g id="m"><use transform="matrix(0.05,0,0,0.05,0,0)" xlink:href="#ai"/><use transform="matrix(0.05,0,0,0.05,10.950000000000001,0)" xlink:href="#X"/><use transform="matrix(0.05,0,0,0.05,20.950000000000003,0)" xlink:href="#Q"/><use transform="matrix(0.05,0,0,0.05,26.900000000000002,0)" xlink:href="#L"/><use transform="matrix(0.05,0,0,0.05,36.900000000000006,0)" xlink:href="#P"/><use transform="matrix(0.05,0,0,0.05,46.900000000000006,0)" xlink:href="#aj"/><use transform="matrix(0.05,0,0,0.05,55.900000000000006,0)" xlink:href="#ak"/></g><g id="n"><use transform="matrix(0.05,0,0,0.05,0,0)" xlink:href="#ag"/><use transform="matrix(0.05,0,0,0.05,10,0)" xlink:href="#X"/><use transform="matrix(0.05,0,0,0.05,20,0)" xlink:href="#R"/><use transform="matrix(0.05,0,0,0.05,29,0)" xlink:href="#N"/></g><g id="o"><use transform="matrix(0.05,0,0,0.05,0,0)" xlink:href="#ad"/><use transform="matrix(0.05,0,0,0.05,5,0)" xlink:href="#R"/></g><g id="p"><use transform="matrix(0.05,0,0,0.05,0,0)" xlink:href="#ag"/><use transform="matrix(0.05,0,0,0.05,10,0)" xlink:href="#X"/><use transform="matrix(0.05,0,0,0.05,20,0)" xlink:href="#R"/><use transform="matrix(0.05,0,0,0.05,29,0)" xlink:href="#N"/></g><path d="M103-251c84 0 111 97 45 133-19 10-37 24-39 52H78c0-63 77-55 77-114 0-30-21-42-52-43-32 0-53 17-56 46l-32-2c7-45 34-72 88-72zM77 0v-35h34V0H77" id="al"/><g id="q"><use transform="matrix(0.05,0,0,0.05,0,0)" xlink:href="#R"/><use transform="matrix(0.05,0,0,0.05,9,0)" xlink:href="#ag"/><use transform="matrix(0.05,0,0,0.05,19,0)" xlink:href="#P"/><use transform="matrix(0.05,0,0,0.05,29,0)" xlink:href="#aa"/><use transform="matrix(0.05,0,0,0.05,43.95,0)" xlink:href="#al"/></g><path d="M240 0l2-218c-23 76-54 145-80 218h-23L58-218 59 0H30v-248h44l77 211c21-75 51-140 76-211h43V0h-30" id="am"/><path d="M143 0L79-87 56-68V0H24v-261h32v163l83-92h37l-77 82L181 0h-38" id="an"/><g id="r"><use transform="matrix(0.05,0,0,0.05,0,0)" xlink:href="#am"/><use transform="matrix(0.05,0,0,0.05,14.950000000000001,0)" xlink:href="#P"/><use transform="matrix(0.05,0,0,0.05,24.950000000000003,0)" xlink:href="#Q"/><use transform="matrix(0.05,0,0,0.05,30.900000000000002,0)" xlink:href="#an"/></g><g id="s"><use transform="matrix(0.05,0,0,0.05,0,0)" xlink:href="#P"/><use transform="matrix(0.05,0,0,0.05,10,0)" xlink:href="#R"/></g><g id="t"><use transform="matrix(0.05,0,0,0.05,0,0)" xlink:href="#R"/><use transform="matrix(0.05,0,0,0.05,9,0)" xlink:href="#ag"/><use transform="matrix(0.05,0,0,0.05,19,0)" xlink:href="#P"/><use transform="matrix(0.05,0,0,0.05,29,0)" xlink:href="#aa"/></g><g id="u"><use transform="matrix(0.05,0,0,0.05,0,0)" xlink:href="#I"/><use transform="matrix(0.05,0,0,0.05,12.950000000000001,0)" xlink:href="#X"/><use transform="matrix(0.05,0,0,0.05,22.950000000000003,0)" xlink:href="#J"/><use transform="matrix(0.05,0,0,0.05,26.900000000000002,0)" xlink:href="#J"/><use transform="matrix(0.05,0,0,0.05,30.85,0)" xlink:href="#L"/><use transform="matrix(0.05,0,0,0.05,40.85,0)" xlink:href="#aj"/><use transform="matrix(0.05,0,0,0.05,49.85,0)" xlink:href="#N"/></g><g id="v"><use transform="matrix(0.05,0,0,0.05,0,0)" xlink:href="#W"/><use transform="matrix(0.05,0,0,0.05,10,0)" xlink:href="#J"/><use transform="matrix(0.05,0,0,0.05,13.949999999999998,0)" xlink:href="#X"/><use transform="matrix(0.05,0,0,0.05,23.95,0)" xlink:href="#Y"/><use transform="matrix(0.05,0,0,0.05,33.95,0)" xlink:href="#R"/></g><g id="w"><use transform="matrix(0.05,0,0,0.05,0,0)" xlink:href="#Z"/><use transform="matrix(0.05,0,0,0.05,5,0)" xlink:href="#Q"/><use transform="matrix(0.05,0,0,0.05,10.95,0)" xlink:href="#X"/><use transform="matrix(0.05,0,0,0.05,20.95,0)" xlink:href="#aa"/></g><g id="x"><use transform="matrix(0.05,0,0,0.05,0,0)" xlink:href="#M"/><use transform="matrix(0.05,0,0,0.05,10,0)" xlink:href="#X"/><use transform="matrix(0.05,0,0,0.05,20,0)" xlink:href="#N"/><use transform="matrix(0.05,0,0,0.05,25,0)" xlink:href="#L"/><use transform="matrix(0.05,0,0,0.05,35,0)" xlink:href="#R"/></g><g id="y"><use transform="matrix(0.05,0,0,0.05,0,0)" xlink:href="#X"/><use transform="matrix(0.05,0,0,0.05,10,0)" xlink:href="#M"/></g><g id="z"><use transform="matrix(0.05,0,0,0.05,0,0)" xlink:href="#R"/><use transform="matrix(0.05,0,0,0.05,9,0)" xlink:href="#ag"/><use transform="matrix(0.05,0,0,0.05,19,0)" xlink:href="#P"/><use transform="matrix(0.05,0,0,0.05,29,0)" xlink:href="#aa"/></g><path d="M137-103V0h-34v-103L8-248h37l75 118 75-118h37" id="ao"/><g id="A"><use transform="matrix(0.05,0,0,0.05,0,0)" xlink:href="#ao"/><use transform="matrix(0.05,0,0,0.05,10.35,0)" xlink:href="#L"/><use transform="matrix(0.05,0,0,0.05,20.35,0)" xlink:href="#R"/></g><path d="M190 0L58-211 59 0H30v-248h39L202-35l-2-213h31V0h-41" id="ap"/><g id="B"><use transform="matrix(0.05,0,0,0.05,0,0)" xlink:href="#ap"/><use transform="matrix(0.05,0,0,0.05,12.950000000000001,0)" xlink:href="#X"/></g><path d="M85-194c31 0 48 13 60 33l-1-100h32l1 261h-30c-2-10 0-23-3-31C134-8 116 4 85 4 32 4 16-35 15-94c0-66 23-100 70-100zm9 24c-40 0-46 34-46 75 0 40 6 74 45 74 42 0 51-32 51-76 0-42-9-74-50-73" id="aq"/><g id="C"><use transform="matrix(0.05,0,0,0.05,0,0)" xlink:href="#O"/><use transform="matrix(0.05,0,0,0.05,12,0)" xlink:href="#L"/><use transform="matrix(0.05,0,0,0.05,22,0)" xlink:href="#M"/><use transform="matrix(0.05,0,0,0.05,32,0)" xlink:href="#aq"/></g><g id="D"><use transform="matrix(0.05,0,0,0.05,0,0)" xlink:href="#W"/><use transform="matrix(0.05,0,0,0.05,10,0)" xlink:href="#P"/><use transform="matrix(0.05,0,0,0.05,20,0)" xlink:href="#aj"/><use transform="matrix(0.05,0,0,0.05,29,0)" xlink:href="#an"/></g><g id="E"><use transform="matrix(0.05,0,0,0.05,0,0)" xlink:href="#aj"/><use transform="matrix(0.05,0,0,0.05,9,0)" xlink:href="#ak"/><use transform="matrix(0.05,0,0,0.05,19,0)" xlink:href="#L"/><use transform="matrix(0.05,0,0,0.05,29,0)" xlink:href="#aj"/><use transform="matrix(0.05,0,0,0.05,38,0)" xlink:href="#an"/><use transform="matrix(0.05,0,0,0.05,47,0)" xlink:href="#L"/><use transform="matrix(0.05,0,0,0.05,57,0)" xlink:href="#aq"/></g><g id="F"><use transform="matrix(0.05,0,0,0.05,0,0)" xlink:href="#W"/><use transform="matrix(0.05,0,0,0.05,10,0)" xlink:href="#P"/><use transform="matrix(0.05,0,0,0.05,20,0)" xlink:href="#aj"/><use transform="matrix(0.05,0,0,0.05,29,0)" xlink:href="#an"/></g><g id="G"><use transform="matrix(0.05,0,0,0.05,0,0)" xlink:href="#P"/><use transform="matrix(0.05,0,0,0.05,10,0)" xlink:href="#R"/></g><g id="H"><use transform="matrix(0.05,0,0,0.05,0,0)" xlink:href="#T"/><use transform="matrix(0.05,0,0,0.05,10.600000000000001,0)" xlink:href="#U"/><use transform="matrix(0.05,0,0,0.05,24.6,0)" xlink:href="#V"/><use transform="matrix(0.05,0,0,0.05,37.550000000000004,0)" xlink:href="#U"/></g></defs></g></svg>